<svg xmlns="http://www.w3.org/2000/svg" viewBox="0 0 300 195" width="100%" height="195">
  <style>
    .card-title { font-family: -apple-system, BlinkMacSystemFont, "Segoe UI", Roboto, sans-serif; font-size: 18px; font-weight: 600; fill: #58a6ff; }
    .lang-name { font-family: -apple-system, BlinkMacSystemFont, "Segoe UI", Roboto, sans-serif; font-size: 13px; fill: #c9d1d9; }
    .lang-pct { font-family: SFMono-Regular, Consolas, monospace; font-size: 12px; fill: #8b949e; }
    .unavailable { font-family: -apple-system, BlinkMacSystemFont, "Segoe UI", Roboto, sans-serif; font-size: 13px; fill: #8b949e; }
  </style>
  <rect width="300" height="195" rx="4.5" fill="#0d1117" stroke="#30363d" stroke-width="1" />
  <text x="25" y="35" class="card-title">Most Used Languages</text>
  <rect x="25" y="52" width="83" height="8" fill="#3178c6" />
  <rect x="108" y="52" width="41" height="8" fill="#AA6746" />
  <rect x="149" y="52" width="41" height="8" fill="#3572A5" />
  <rect x="190" y="52" width="41" height="8" fill="#f1e05a" />
  <rect x="231" y="52" width="41" height="8" fill="#563d7c" />
  <circle cx="30" cy="81" r="5" fill="#3178c6" />
  <text x="43" y="85" class="lang-name">TypeScript</text>
  <text x="43" y="101" class="lang-pct">33.3%</text>
  <circle cx="165" cy="81" r="5" fill="#AA6746" />
  <text x="178" y="85" class="lang-name">Solidity</text>
  <text x="178" y="101" class="lang-pct">16.7%</text>
  <circle cx="30" cy="111" r="5" fill="#3572A5" />
  <text x="43" y="115" class="lang-name">Python</text>
  <text x="43" y="131" class="lang-pct">16.7%</text>
  <circle cx="165" cy="111" r="5" fill="#f1e05a" />
  <text x="178" y="115" class="lang-name">JavaScript</text>
  <text x="178" y="131" class="lang-pct">16.7%</text>
  <circle cx="30" cy="141" r="5" fill="#563d7c" />
  <text x="43" y="145" class="lang-name">CSS</text>
  <text x="43" y="161" class="lang-pct">16.7%</text>
</svg>